<?xml version="1.0" encoding="UTF-8" standalone="no"?>
<!-- Created with Inkscape (http://www.inkscape.org/) -->

<svg
   xmlns:dc="http://purl.org/dc/elements/1.1/"
   xmlns:cc="http://creativecommons.org/ns#"
   xmlns:rdf="http://www.w3.org/1999/02/22-rdf-syntax-ns#"
   xmlns:svg="http://www.w3.org/2000/svg"
   xmlns="http://www.w3.org/2000/svg"
   xmlns:xlink="http://www.w3.org/1999/xlink"
   xmlns:sodipodi="http://sodipodi.sourceforge.net/DTD/sodipodi-0.dtd"
   xmlns:inkscape="http://www.inkscape.org/namespaces/inkscape"
   id="svg2226"
   sodipodi:version="0.32"
   inkscape:version="0.91 r13725"
   width="9.4750404in"
   height="6.5346251in"
   version="1.0"
   sodipodi:docname="sentinal-value-histogram-example.svg"
   inkscape:output_extension="org.inkscape.output.svg.inkscape">
  <metadata
     id="metadata2231">
    <rdf:RDF>
      <cc:Work
         rdf:about="">
        <dc:format>image/svg+xml</dc:format>
        <dc:type
           rdf:resource="http://purl.org/dc/dcmitype/StillImage" />
        <dc:title></dc:title>
      </cc:Work>
    </rdf:RDF>
  </metadata>
  <defs
     id="defs2229">
    <linearGradient
       id="linearGradient4143"
       inkscape:collect="always">
      <stop
         id="stop4145"
         offset="0"
         style="stop-color:#cccccc;stop-opacity:1;" />
      <stop
         id="stop4147"
         offset="1"
         style="stop-color:#cccccc;stop-opacity:0;" />
    </linearGradient>
    <linearGradient
       inkscape:collect="always"
       xlink:href="#linearGradient4143"
       id="linearGradient4141"
       x1="52.166416"
       y1="396.34177"
       x2="53.934769"
       y2="396.34177"
       gradientUnits="userSpaceOnUse"
       gradientTransform="translate(1.2686011,-2.9985119)" />
  </defs>
  <sodipodi:namedview
     inkscape:window-height="1018"
     inkscape:window-width="1920"
     inkscape:pageshadow="2"
     inkscape:pageopacity="0.0"
     guidetolerance="10.0"
     gridtolerance="10.0"
     objecttolerance="10.0"
     borderopacity="1.0"
     bordercolor="#666666"
     pagecolor="#ffffff"
     id="base"
     showguides="true"
     inkscape:guide-bbox="true"
     inkscape:zoom="0.35355337"
     inkscape:cx="1175.8337"
     inkscape:cy="131.64394"
     inkscape:window-x="1912"
     inkscape:window-y="-8"
     inkscape:current-layer="svg2226"
     width="1024px"
     height="768px"
     showgrid="false"
     inkscape:window-maximized="1"
     fit-margin-top="10"
     fit-margin-left="10"
     fit-margin-right="10"
     fit-margin-bottom="10"
     units="in" />
  <rect
     style="fill:#63aafe;fill-opacity:1;stroke:none"
     id="rect2190"
     width="27.546879"
     height="407.9267"
     x="112.55393"
     y="87.49482" />
  <rect
     style="fill:#63aafe;fill-opacity:1;stroke:none"
     id="rect4149"
     width="27.546879"
     height="18.467579"
     x="167.32249"
     y="476.99185" />
  <rect
     style="fill:#63aafe;fill-opacity:1;stroke:none"
     id="rect4151"
     width="27.546879"
     height="103.61799"
     x="272.10956"
     y="391.84299" />
  <g
     id="g2267"
     transform="matrix(4.5654512,0,0,4.1281636,-97.47309,-1153.7288)">
    <rect
       y="359.01138"
       x="116.00394"
       height="40.365948"
       width="6.0337687"
       id="rect4155"
       style="fill:#63aafe;fill-opacity:1;stroke:none" />
  </g>
  <rect
     style="fill:#63aafe;fill-opacity:1;stroke:none"
     id="rect4159"
     width="27.546879"
     height="128.39606"
     x="482.33426"
     y="365.47736" />
  <rect
     style="fill:#63aafe;fill-opacity:1;stroke:none"
     id="rect2259"
     width="27.546879"
     height="90.803673"
     x="537.10956"
     y="403.40509" />
  <g
     id="g2287"
     transform="matrix(4.5654512,0,0,4.2480423,-97.47309,-1201.4001)">
    <rect
       y="385.00305"
       x="150.98141"
       height="14.146933"
       width="6.039"
       id="rect2273"
       style="fill:#63aafe;fill-opacity:1;stroke:none" />
  </g>
  <rect
     style="fill:#63aafe;fill-opacity:1;stroke:none"
     id="rect2293"
     width="27.571201"
     height="123.89462"
     x="642.13708"
     y="369.94272" />
  <rect
     style="fill:#63aafe;fill-opacity:1;stroke:none"
     id="rect4238"
     width="27.566553"
     height="291.54663"
     x="696.87878"
     y="205.7699" />
  <rect
     style="fill:#63aafe;fill-opacity:1;stroke:none"
     id="rect4244"
     width="27.570761"
     height="158.08498"
     x="801.93658"
     y="336.11462" />
  <rect
     style="fill:#63aafe;fill-opacity:1;stroke:none"
     id="rect4254"
     width="27.566553"
     height="252.188"
     x="751.70605"
     y="242.8893" />
  <path
     style="font-style:normal;font-variant:normal;font-weight:normal;font-stretch:normal;font-size:11px;line-height:125%;font-family:'Bitstream Vera Sans';text-align:start;writing-mode:lr-tb;text-anchor:start"
     d="m 26.52747,14.97785 -12.50595,19.54361 12.50595,0 0,-19.54361 z m -1.29964,-4.31576 6.22845,0 0,23.85937 5.22307,0 0,4.1196 -5.22307,0 0,8.63156 -4.92881,0 0,-8.63156 -16.52747,0 0,-4.78169 15.22783,-23.19728 z m 30.25949,3.26133 c -2.55024,3e-5 -4.467,1.25472 -5.75028,3.76405 -1.2833,2.5094 -1.92495,6.28159 -1.92494,11.31665 -1e-5,5.01876 0.64164,8.78278 1.92494,11.29214 1.28328,2.50937 3.20004,3.76405 5.75028,3.76405 2.56656,0 4.4915,-1.25468 5.77481,-3.76405 1.28326,-2.50936 1.92491,-6.27338 1.92493,-11.29214 -2e-5,-5.03506 -0.64167,-8.80725 -1.92493,-11.31665 -1.28331,-2.50933 -3.20825,-3.76402 -5.77481,-3.76405 l 0,0 z m 0,-3.92342 c 4.10324,3e-5 7.2379,1.62252 9.40399,4.8675 2.16603,3.24505 3.24906,7.95725 3.24909,14.13662 -3e-5,6.16307 -1.08306,10.86713 -3.24909,14.11211 -2.16609,3.24501 -5.30075,4.8675 -9.40399,4.8675 -4.10327,0 -7.23792,-1.62249 -9.40398,-4.8675 -2.16607,-3.24498 -3.2491,-7.94904 -3.24909,-14.11211 -10e-6,-6.17937 1.08302,-10.89157 3.24909,-14.13662 C 48.2494,11.62252 51.38405,10.00003 55.48732,10 l 0,0 z"
     id="flowRoot2465"
     inkscape:connector-curvature="0" />
  <path
     style="font-style:normal;font-variant:normal;font-weight:normal;font-stretch:normal;font-size:11px;line-height:125%;font-family:'Bitstream Vera Sans';text-align:start;writing-mode:lr-tb;text-anchor:start"
     d="m 17.18479,271.37656 17.28763,0 0,4.16863 -23.24635,0 0,-4.16863 c 1.87998,-1.94538 4.44246,-4.55691 7.68748,-7.83463 3.245,-3.27769 5.28436,-5.39061 6.11811,-6.3388 1.5857,-1.78186 2.69326,-3.28994 3.32266,-4.52419 0.62936,-1.23423 0.94405,-2.44806 0.94408,-3.64146 -3e-5,-1.94534 -0.68254,-3.53105 -2.04755,-4.75716 -1.36504,-1.22602 -3.14285,-1.83907 -5.33342,-1.8391 -1.55304,3e-5 -3.19189,0.26968 -4.91655,0.8092 -1.72468,0.5395 -3.56788,1.35688 -5.52959,2.45216 l 0,-5.00237 c 1.99441,-0.80101 3.85803,-1.40588 5.59089,-1.81461 1.73284,-0.40866 3.31857,-0.61299 4.75717,-0.61302 3.79263,3e-5 6.81694,0.94818 9.07294,2.8445 2.25595,1.89634 3.38393,4.43023 3.38396,7.60162 -3e-5,1.50404 -0.28203,2.93034 -0.84599,4.27901 -0.56402,1.34871 -1.58983,2.93852 -3.07744,4.76942 -0.40871,0.4741 -1.70836,1.8432 -3.89892,4.10735 -2.1906,2.26415 -5.2803,5.4315 -9.26911,9.50208 l 0,0 z M 55.48732,242.196 c -2.55024,3e-5 -4.467,1.25471 -5.75028,3.76405 -1.2833,2.5094 -1.92495,6.28159 -1.92494,11.31664 -1e-5,5.01877 0.64164,8.78278 1.92494,11.29215 1.28328,2.50937 3.20004,3.76405 5.75028,3.76405 2.56656,0 4.4915,-1.25468 5.77481,-3.76405 1.28326,-2.50937 1.92491,-6.27338 1.92493,-11.29215 -2e-5,-5.03505 -0.64167,-8.80724 -1.92493,-11.31664 -1.28331,-2.50934 -3.20825,-3.76402 -5.77481,-3.76405 l 0,0 z m 0,-3.92342 c 4.10324,3e-5 7.2379,1.62252 9.40399,4.8675 2.16603,3.24505 3.24906,7.95725 3.24909,14.13661 -3e-5,6.16308 -1.08306,10.86713 -3.24909,14.11212 -2.16609,3.24501 -5.30075,4.8675 -9.40399,4.8675 -4.10327,0 -7.23792,-1.62249 -9.40398,-4.8675 -2.16607,-3.24499 -3.2491,-7.94904 -3.24909,-14.11212 -10e-6,-6.17936 1.08302,-10.89156 3.24909,-14.13661 2.16606,-3.24498 5.30071,-4.86747 9.40398,-4.8675 l 0,0 z"
     id="flowRoot2473"
     inkscape:connector-curvature="0" />
  <path
     style="font-style:normal;font-variant:normal;font-weight:normal;font-stretch:normal;font-size:11px;line-height:125%;font-family:'Bitstream Vera Sans';text-align:start;writing-mode:lr-tb;text-anchor:start"
     d="m 55.48732,470.46855 c -2.55025,3e-5 -4.467,1.25471 -5.75028,3.76404 -1.2833,2.5094 -1.92494,6.2816 -1.92494,11.31665 0,5.01876 0.64164,8.78278 1.92494,11.29215 1.28328,2.50936 3.20003,3.76404 5.75028,3.76404 2.56656,0 4.4915,-1.25468 5.77481,-3.76404 1.28327,-2.50937 1.92491,-6.27339 1.92493,-11.29215 -2e-5,-5.03505 -0.64166,-8.80725 -1.92493,-11.31665 -1.28331,-2.50933 -3.20825,-3.76401 -5.77481,-3.76404 l 0,0 z m 0,-3.92343 c 4.10324,3e-5 7.2379,1.62253 9.40398,4.86751 2.16604,3.24504 3.24907,7.95725 3.2491,14.13661 -3e-5,6.16307 -1.08306,10.86713 -3.2491,14.11211 -2.16608,3.24501 -5.30074,4.86751 -9.40398,4.86751 -4.10327,0 -7.23792,-1.6225 -9.40398,-4.86751 -2.16607,-3.24498 -3.2491,-7.94904 -3.24909,-14.11211 -10e-6,-6.17936 1.08302,-10.89157 3.24909,-14.13661 2.16606,-3.24498 5.30071,-4.86748 9.40398,-4.86751 l 0,0 z"
     id="flowRoot2481"
     inkscape:connector-curvature="0" />
  <g
     id="g3759"
     transform="matrix(3.0856398,0,0,3.0856398,-104.38019,-1404.1048)">
    <path
       id="flowRoot5416"
       d="m -10.486328,53.036827 -2.490234,3.891601 2.490234,0 0,-3.891601 m -0.258789,-0.859375 1.2402342,0 0,4.750976 1.040039,0 0,0.820313 -1.040039,0 0,1.71875 -0.9814452,0 0,-1.71875 -3.291016,0 0,-0.952149 3.032227,-4.61914 m 6.1474608,3.251953 c -0.4427112,4e-6 -0.7942734,0.151371 -1.0546876,0.454101 -0.2571634,0.302738 -0.385744,0.717777 -0.3857421,1.245117 -1.9e-6,0.524091 0.1285787,0.939129 0.3857421,1.245118 0.2604142,0.302735 0.6119764,0.454102 1.0546876,0.454101 0.4427045,1e-6 0.7926391,-0.151366 1.0498046,-0.454101 0.2604121,-0.305989 0.3906203,-0.721027 0.390625,-1.245118 -4.7e-6,-0.52734 -0.1302129,-0.942379 -0.390625,-1.245117 -0.2571655,-0.30273 -0.6071001,-0.454097 -1.0498046,-0.454101 m 1.9580078,-3.090821 0,0.898438 c -0.2474009,-0.117181 -0.4980517,-0.206699 -0.7519532,-0.268555 -0.2506553,-0.06184 -0.4996784,-0.09277 -0.7470703,-0.09277 -0.6510448,6e-6 -1.1490911,0.219733 -1.4941406,0.659179 -0.3417988,0.439459 -0.5371111,1.103521 -0.5859375,1.992188 0.1920554,-0.283199 0.4329406,-0.49967 0.7226562,-0.649414 0.2897109,-0.15299 0.608721,-0.229488 0.9570313,-0.229492 0.7324178,4e-6 1.3102167,0.222986 1.7333984,0.668945 0.4264268,0.442712 0.6396427,1.046553 0.6396485,1.811523 -5.8e-6,0.7487 -0.2213597,1.349285 -0.6640625,1.801758 -0.442713,0.452474 -1.0319051,0.678711 -1.7675781,0.678711 -0.8431015,0 -1.4876321,-0.322265 -1.9335938,-0.966797 -0.4459645,-0.647785 -0.668946,-1.585284 -0.6689453,-2.8125 -7e-7,-1.152339 0.2734365,-2.070306 0.8203125,-2.753906 0.5468729,-0.686842 1.2809217,-1.030266 2.2021484,-1.030273 0.2473919,7e-6 0.4964151,0.02442 0.7470703,0.07324 0.2539016,0.04883 0.5175732,0.122077 0.7910157,0.219726"
       style="font-style:normal;font-variant:normal;font-weight:normal;font-stretch:normal;font-size:10px;line-height:125%;font-family:Arial;text-align:start;writing-mode:lr-tb;text-anchor:start"
       transform="matrix(0,-1.4795801,1.4795801,0,11.606816,622.01727)"
       inkscape:connector-curvature="0"
       sodipodi:nodetypes="ccccccccccccccccccscscccccccsccccccsscscccc" />
    <path
       id="flowRoot5424"
       d="m -10.486328,53.036827 -2.490234,3.891601 2.490234,0 0,-3.891601 m -0.258789,-0.859375 1.2402342,0 0,4.750976 1.040039,0 0,0.820313 -1.040039,0 0,1.71875 -0.9814452,0 0,-1.71875 -3.291016,0 0,-0.952149 3.032227,-4.61914 m 3.666992,0 4.6875,0 0,0.419921 -2.6464844,6.870118 -1.0302734,0 2.4902344,-6.459961 -3.5009766,0 0,-0.830078"
       style="font-style:normal;font-variant:normal;font-weight:normal;font-stretch:normal;font-size:10px;line-height:125%;font-family:Arial;text-align:start;writing-mode:lr-tb;text-anchor:start"
       transform="matrix(0,-1.4795801,1.4795801,0,30.147096,622.01727)"
       inkscape:connector-curvature="0"
       sodipodi:nodetypes="cccccccccccccccccccccccc" />
    <path
       id="flowRoot5432"
       d="m -10.486328,53.036827 -2.490234,3.891601 2.490234,0 0,-3.891601 m -0.258789,-0.859375 1.2402342,0 0,4.750976 1.040039,0 0,0.820313 -1.040039,0 0,1.71875 -0.9814452,0 0,-1.71875 -3.291016,0 0,-0.952149 3.032227,-4.61914 m 6.0253904,3.828125 c -0.4687527,3e-6 -0.8382184,0.125328 -1.1083984,0.375976 -0.2669289,0.250654 -0.4003923,0.595706 -0.4003906,1.035156 -1.7e-6,0.439455 0.1334617,0.784507 0.4003906,1.035157 0.27018,0.250651 0.6396457,0.375977 1.1083984,0.375976 0.4687464,1e-6 0.8382122,-0.125325 1.1083985,-0.375976 0.2701777,-0.253905 0.4052687,-0.598957 0.4052734,-1.035157 -4.7e-6,-0.43945 -0.1350957,-0.784502 -0.4052734,-1.035156 -0.2669311,-0.250648 -0.6363969,-0.375973 -1.1083985,-0.375976 m -0.9863281,-0.419922 c -0.4231788,-0.104163 -0.7535822,-0.301103 -0.9912109,-0.590821 -0.234376,-0.289708 -0.3515634,-0.642898 -0.3515625,-1.05957 -9e-7,-0.582676 0.2067046,-1.043288 0.6201172,-1.381836 0.4166647,-0.338534 0.9863256,-0.507805 1.7089843,-0.507812 0.7259076,7e-6 1.2955685,0.169278 1.7089844,0.507812 0.4134062,0.338548 0.6201117,0.79916 0.6201172,1.381836 -5.5e-6,0.416672 -0.1188205,0.769862 -0.3564453,1.05957 -0.2343799,0.289718 -0.561528,0.486658 -0.9814453,0.590821 0.4752557,0.110681 0.8447215,0.327152 1.1083984,0.649414 0.2669216,0.322268 0.400385,0.716148 0.4003906,1.18164 -5.6e-6,0.706382 -0.2164768,1.248374 -0.649414,1.625977 -0.4296921,0.377604 -1.0465535,0.566406 -1.850586,0.566406 -0.8040388,0 -1.4225278,-0.188802 -1.8554687,-0.566406 -0.4296884,-0.377603 -0.6445319,-0.919595 -0.6445313,-1.625977 -6e-7,-0.465492 0.1334628,-0.859372 0.4003907,-1.18164 0.2669257,-0.322262 0.6380191,-0.538733 1.1132812,-0.649414 m -0.3613281,-1.557618 c -1.8e-6,0.37761 0.1171855,0.672206 0.3515625,0.88379 0.2376278,0.211592 0.5696587,0.317387 0.9960937,0.317382 0.4231735,5e-6 0.7535768,-0.10579 0.991211,-0.317382 0.240881,-0.211584 0.3613236,-0.50618 0.3613281,-0.88379 -4.5e-6,-0.377598 -0.1204471,-0.672194 -0.3613281,-0.883789 -0.2376342,-0.211582 -0.5680375,-0.317376 -0.991211,-0.317382 -0.426435,6e-6 -0.7584659,0.1058 -0.9960937,0.317382 -0.234377,0.211595 -0.3515643,0.506191 -0.3515625,0.883789"
       style="font-style:normal;font-variant:normal;font-weight:normal;font-stretch:normal;font-size:10px;line-height:125%;font-family:Arial;text-align:start;writing-mode:lr-tb;text-anchor:start"
       transform="matrix(0,-1.4795801,1.4795801,0,45.566139,622.01727)"
       inkscape:connector-curvature="0"
       sodipodi:nodetypes="ccccccccccccccccccscsccccccscccccccccscsscccccccccc" />
    <path
       id="flowRoot5440"
       d="m -10.486328,53.036827 -2.490234,3.891601 2.490234,0 0,-3.891601 m -0.258789,-0.859375 1.2402342,0 0,4.750976 1.040039,0 0,0.820313 -1.040039,0 0,1.71875 -0.9814452,0 0,-1.71875 -3.291016,0 0,-0.952149 3.032227,-4.61914 m 3.9453123,7.138671 0,-0.898437 c 0.2473945,0.117188 0.4980453,0.206706 0.7519531,0.268555 0.2539042,0.06185 0.5029274,0.09277 0.7470704,0.09277 0.6510384,1e-6 1.1474571,-0.218098 1.4892578,-0.654297 0.3450476,-0.439451 0.5419875,-1.105141 0.5908203,-1.99707 -0.1888066,0.279951 -0.4280642,0.494794 -0.7177735,0.644531 -0.2897172,0.149742 -0.6103549,0.224612 -0.961914,0.224609 -0.729169,3e-6 -1.3069679,-0.219723 -1.7333985,-0.659179 -0.4231779,-0.442705 -0.6347662,-1.046546 -0.6347656,-1.811524 -6e-7,-0.748692 0.2213533,-1.349277 0.6640625,-1.801757 0.4427066,-0.452467 1.0318987,-0.678704 1.7675781,-0.678711 0.8430951,7e-6 1.4859981,0.3239 1.928711,0.971679 0.4459581,0.644537 0.6689396,1.582036 0.6689453,2.8125 -5.7e-6,1.149091 -0.2734429,2.067059 -0.8203125,2.753907 -0.5436241,0.683593 -1.2760452,1.02539 -2.1972656,1.02539 -0.2473983,0 -0.4980491,-0.02441 -0.7519532,-0.07324 -0.2539078,-0.04883 -0.5175795,-0.12207 -0.7910156,-0.219727 m 1.9628906,-3.09082 c 0.4427049,3e-6 0.7926394,-0.151364 1.0498047,-0.454101 0.2604123,-0.302731 0.3906205,-0.717769 0.390625,-1.245118 -4.5e-6,-0.524083 -0.1302127,-0.937494 -0.390625,-1.240234 -0.2571653,-0.305983 -0.6070998,-0.458978 -1.0498047,-0.458984 -0.4427109,6e-6 -0.7942731,0.153001 -1.0546875,0.458984 -0.2571632,0.30274 -0.3857438,0.716151 -0.3857422,1.240234 -1.6e-6,0.527349 0.128579,0.942387 0.3857422,1.245118 0.2604144,0.302737 0.6119766,0.454104 1.0546875,0.454101"
       style="font-style:normal;font-variant:normal;font-weight:normal;font-stretch:normal;font-size:10px;line-height:125%;font-family:Arial;text-align:start;writing-mode:lr-tb;text-anchor:start"
       transform="matrix(0,-1.4795801,1.4795801,0,63.352171,622.01727)"
       inkscape:connector-curvature="0"
       sodipodi:nodetypes="ccccccccccccccccccssccsccssccscsscccccccscc" />
    <path
       id="flowRoot5448"
       d="m -13.186523,52.177452 3.8720699,0 0,0.830078 -2.9687499,0 0,1.787109 c 0.143227,-0.04882 0.286456,-0.08463 0.429687,-0.107422 0.143227,-0.02604 0.286456,-0.03906 0.429688,-0.03906 0.813798,4e-6 1.4583289,0.222986 1.9335936,0.668945 0.4752552,0.445967 0.7128852,1.049808 0.7128906,1.811523 -5.4e-6,0.784507 -0.2441458,1.394858 -0.7324218,1.831055 -0.4882855,0.432943 -1.1767614,0.649414 -2.0654294,0.649414 -0.305992,0 -0.618492,-0.02604 -0.9375,-0.07813 -0.315757,-0.05208 -0.642905,-0.130208 -0.981446,-0.234375 l 0,-0.991211 c 0.292968,0.159506 0.595702,0.278321 0.908203,0.356446 0.312499,0.07813 0.642902,0.117188 0.991211,0.117187 0.563148,1e-6 1.009111,-0.148111 1.337891,-0.444336 0.3287718,-0.296222 0.4931596,-0.69824 0.4931641,-1.206055 -4.5e-6,-0.507809 -0.1643923,-0.909827 -0.4931641,-1.206054 -0.32878,-0.29622 -0.774743,-0.444332 -1.337891,-0.444336 -0.263674,4e-6 -0.527345,0.0293 -0.791015,0.08789 -0.260418,0.0586 -0.527345,0.149744 -0.800781,0.273438 l 0,-3.662109 m 8.4667964,0.649414 c -0.5078151,6e-6 -0.8903017,0.250657 -1.1474609,0.751953 -0.253908,0.498052 -0.380861,1.248377 -0.3808594,2.250976 -1.6e-6,0.999352 0.1269514,1.749677 0.3808594,2.250977 0.2571592,0.498048 0.6396458,0.747071 1.1474609,0.74707 0.5110641,1e-6 0.8935507,-0.249022 1.147461,-0.74707 0.2571568,-0.5013 0.3857375,-1.251625 0.3857422,-2.250977 -4.7e-6,-1.002599 -0.1285854,-1.752924 -0.3857422,-2.250976 -0.2539103,-0.501296 -0.6363969,-0.751947 -1.147461,-0.751953 m 0,-0.78125 c 0.8170533,7e-6 1.4404251,0.3239 1.8701172,0.971679 0.4329373,0.644537 0.6494084,1.582036 0.6494141,2.8125 -5.7e-6,1.227216 -0.2164768,2.164715 -0.6494141,2.8125 -0.4296921,0.644532 -1.0530639,0.966797 -1.8701172,0.966797 -0.8170596,0 -1.442059,-0.322265 -1.875,-0.966797 -0.4296883,-0.647785 -0.6445319,-1.585284 -0.6445312,-2.8125 -7e-7,-1.230464 0.2148429,-2.167963 0.6445312,-2.8125 0.432941,-0.647779 1.0579404,-0.971672 1.875,-0.971679"
       style="font-style:normal;font-variant:normal;font-weight:normal;font-stretch:normal;font-size:10px;line-height:125%;font-family:Arial;text-align:start;writing-mode:lr-tb;text-anchor:start"
       transform="matrix(0,-1.4795801,1.4795801,0,80.36571,622.01727)"
       inkscape:connector-curvature="0"
       sodipodi:nodetypes="ccccccscccsccccssccccccccscscsccccscscscc" />
    <path
       id="flowRoot5456"
       d="m -13.186523,52.177452 3.8720699,0 0,0.830078 -2.9687499,0 0,1.787109 c 0.143227,-0.04882 0.286456,-0.08463 0.429687,-0.107422 0.143227,-0.02604 0.286456,-0.03906 0.429688,-0.03906 0.813798,4e-6 1.4583289,0.222986 1.9335936,0.668945 0.4752552,0.445967 0.7128852,1.049808 0.7128906,1.811523 -5.4e-6,0.784507 -0.2441458,1.394858 -0.7324218,1.831055 -0.4882855,0.432943 -1.1767614,0.649414 -2.0654294,0.649414 -0.305992,0 -0.618492,-0.02604 -0.9375,-0.07813 -0.315757,-0.05208 -0.642905,-0.130208 -0.981446,-0.234375 l 0,-0.991211 c 0.292968,0.159506 0.595702,0.278321 0.908203,0.356446 0.312499,0.07813 0.642902,0.117188 0.991211,0.117187 0.563148,1e-6 1.009111,-0.148111 1.337891,-0.444336 0.3287718,-0.296222 0.4931596,-0.69824 0.4931641,-1.206055 -4.5e-6,-0.507809 -0.1643923,-0.909827 -0.4931641,-1.206054 -0.32878,-0.29622 -0.774743,-0.444332 -1.337891,-0.444336 -0.263674,4e-6 -0.527345,0.0293 -0.791015,0.08789 -0.260418,0.0586 -0.527345,0.149744 -0.800781,0.273438 l 0,-3.662109 m 6.5283199,6.45996 1.6113281,0 0,-5.561523 -1.7529297,0.351563 0,-0.898438 1.7431641,-0.351562 0.9863281,0 0,6.45996 1.6113281,0 0,0.830079 -4.1992187,0 0,-0.830079"
       style="font-style:normal;font-variant:normal;font-weight:normal;font-stretch:normal;font-size:10px;line-height:125%;font-family:Arial;text-align:start;writing-mode:lr-tb;text-anchor:start"
       transform="matrix(0,-1.4795801,1.4795801,0,97.420982,622.01727)"
       inkscape:connector-curvature="0"
       sodipodi:nodetypes="ccccccscccsccccsscccccccccccccccccc" />
    <path
       id="flowRoot5464"
       d="m -13.186523,52.177452 3.8720699,0 0,0.830078 -2.9687499,0 0,1.787109 c 0.143227,-0.04882 0.286456,-0.08463 0.429687,-0.107422 0.143227,-0.02604 0.286456,-0.03906 0.429688,-0.03906 0.813798,4e-6 1.4583289,0.222986 1.9335936,0.668945 0.4752552,0.445967 0.7128852,1.049808 0.7128906,1.811523 -5.4e-6,0.784507 -0.2441458,1.394858 -0.7324218,1.831055 -0.4882855,0.432943 -1.1767614,0.649414 -2.0654294,0.649414 -0.305992,0 -0.618492,-0.02604 -0.9375,-0.07813 -0.315757,-0.05208 -0.642905,-0.130208 -0.981446,-0.234375 l 0,-0.991211 c 0.292968,0.159506 0.595702,0.278321 0.908203,0.356446 0.312499,0.07813 0.642902,0.117188 0.991211,0.117187 0.563148,1e-6 1.009111,-0.148111 1.337891,-0.444336 0.3287718,-0.296222 0.4931596,-0.69824 0.4931641,-1.206055 -4.5e-6,-0.507809 -0.1643923,-0.909827 -0.4931641,-1.206054 -0.32878,-0.29622 -0.774743,-0.444332 -1.337891,-0.444336 -0.263674,4e-6 -0.527345,0.0293 -0.791015,0.08789 -0.260418,0.0586 -0.527345,0.149744 -0.800781,0.273438 l 0,-3.662109 m 7.2070308,6.45996 3.4423828,0 0,0.830079 -4.6289062,0 0,-0.830079 c 0.3743478,-0.387368 0.8837874,-0.906573 1.5283203,-1.557617 0.6477835,-0.654294 1.0546842,-1.075843 1.2207031,-1.264648 0.3157514,-0.354814 0.5354778,-0.654293 0.6591797,-0.898438 0.1269489,-0.247391 0.1904254,-0.489903 0.1904297,-0.727539 -4.3e-6,-0.387364 -0.136723,-0.703119 -0.4101563,-0.947265 -0.2701859,-0.244134 -0.6233757,-0.366205 -1.0595703,-0.366211 -0.3092473,6e-6 -0.6363954,0.05372 -0.9814453,0.161133 -0.3417984,0.107428 -0.708009,0.270188 -1.0986328,0.488281 l 0,-0.996094 c 0.3971342,-0.159498 0.7682276,-0.279941 1.1132813,-0.361328 0.3450498,-0.08137 0.6608047,-0.122063 0.9472656,-0.12207 0.7552047,7e-6 1.3574177,0.188809 1.8066406,0.566406 0.4492137,0.377611 0.6738228,0.882167 0.6738281,1.513672 -5.3e-6,0.299484 -0.056971,0.584314 -0.1708984,0.854492 -0.1106821,0.266931 -0.3141325,0.582686 -0.6103516,0.947266 -0.081385,0.0944 -0.3401734,0.367841 -0.7763672,0.820312 -0.4362012,0.449221 -1.051435,1.079103 -1.8457031,1.889648"
       style="font-style:normal;font-variant:normal;font-weight:normal;font-stretch:normal;font-size:10px;line-height:125%;font-family:Arial;text-align:start;writing-mode:lr-tb;text-anchor:start"
       transform="matrix(0,-1.4795801,1.4795801,0,113.69636,622.01727)"
       inkscape:connector-curvature="0"
       sodipodi:nodetypes="ccccccscccsccccsscccccccccccccccccccccccccccc" />
    <path
       id="flowRoot5472"
       d="m -13.186523,52.177452 3.8720699,0 0,0.830078 -2.9687499,0 0,1.787109 c 0.143227,-0.04882 0.286456,-0.08463 0.429687,-0.107422 0.143227,-0.02604 0.286456,-0.03906 0.429688,-0.03906 0.813798,4e-6 1.4583289,0.222986 1.9335936,0.668945 0.4752552,0.445967 0.7128852,1.049808 0.7128906,1.811523 -5.4e-6,0.784507 -0.2441458,1.394858 -0.7324218,1.831055 -0.4882855,0.432943 -1.1767614,0.649414 -2.0654294,0.649414 -0.305992,0 -0.618492,-0.02604 -0.9375,-0.07813 -0.315757,-0.05208 -0.642905,-0.130208 -0.981446,-0.234375 l 0,-0.991211 c 0.292968,0.159506 0.595702,0.278321 0.908203,0.356446 0.312499,0.07813 0.642902,0.117188 0.991211,0.117187 0.563148,1e-6 1.009111,-0.148111 1.337891,-0.444336 0.3287718,-0.296222 0.4931596,-0.69824 0.4931641,-1.206055 -4.5e-6,-0.507809 -0.1643923,-0.909827 -0.4931641,-1.206054 -0.32878,-0.29622 -0.774743,-0.444332 -1.337891,-0.444336 -0.263674,4e-6 -0.527345,0.0293 -0.791015,0.08789 -0.260418,0.0586 -0.527345,0.149744 -0.800781,0.273438 l 0,-3.662109 m 9.3457027,3.359375 c 0.4720007,0.100915 0.8398388,0.310876 1.1035156,0.629882 0.2669217,0.319014 0.4003851,0.712894 0.4003906,1.181641 -5.5e-6,0.719402 -0.2474011,1.276042 -0.7421875,1.669922 -0.494796,0.39388 -1.1979203,0.59082 -2.109375,0.59082 -0.3059919,0 -0.6217468,-0.03092 -0.9472656,-0.09277 -0.3222671,-0.05859 -0.6559256,-0.148112 -1.0009766,-0.268555 l 0,-0.952148 c 0.2734365,0.159506 0.5729154,0.279948 0.8984376,0.361328 0.3255188,0.08138 0.6656877,0.122071 1.0205078,0.12207 0.6184862,1e-6 1.0888634,-0.122069 1.4111328,-0.366211 0.3255164,-0.244139 0.4882766,-0.598957 0.4882812,-1.064453 -4.6e-6,-0.429685 -0.1513716,-0.764971 -0.4541015,-1.005859 -0.299483,-0.244138 -0.7177769,-0.366208 -1.2548829,-0.366211 l -0.8496093,0 0,-0.810547 0.8886719,0 c 0.4850226,4e-6 0.856116,-0.09602 1.1132812,-0.288086 0.2571572,-0.195308 0.3857378,-0.475255 0.3857422,-0.839844 -4.4e-6,-0.374343 -0.1334678,-0.660801 -0.4003906,-0.859375 -0.2636757,-0.201816 -0.642907,-0.302728 -1.1376954,-0.302734 -0.2701848,6e-6 -0.5598981,0.0293 -0.8691406,0.08789 -0.3092465,0.0586 -0.6494154,0.149746 -1.0205078,0.273438 l 0,-0.878906 c 0.3743476,-0.10416 0.7242822,-0.182285 1.0498047,-0.234375 0.3287737,-0.05208 0.6380182,-0.07812 0.9277344,-0.07813 0.7486942,7e-6 1.3411415,0.170905 1.7773437,0.512695 0.4361928,0.338548 0.6542915,0.797532 0.6542969,1.376953 -5.4e-6,0.403651 -0.1155652,0.745448 -0.3466797,1.025391 -0.2311246,0.276697 -0.5599003,0.468754 -0.9863281,0.576172"
       style="font-style:normal;font-variant:normal;font-weight:normal;font-stretch:normal;font-size:10px;line-height:125%;font-family:Arial;text-align:start;writing-mode:lr-tb;text-anchor:start"
       transform="matrix(0,-1.4795801,1.4795801,0,131.44837,622.01727)"
       inkscape:connector-curvature="0"
       sodipodi:nodetypes="ccccccscccsccccsscccccccccsscccsscccsccsccccccccccccc" />
    <path
       id="flowRoot5480"
       d="m -13.186523,52.177452 3.8720699,0 0,0.830078 -2.9687499,0 0,1.787109 c 0.143227,-0.04882 0.286456,-0.08463 0.429687,-0.107422 0.143227,-0.02604 0.286456,-0.03906 0.429688,-0.03906 0.813798,4e-6 1.4583289,0.222986 1.9335936,0.668945 0.4752552,0.445967 0.7128852,1.049808 0.7128906,1.811523 -5.4e-6,0.784507 -0.2441458,1.394858 -0.7324218,1.831055 -0.4882855,0.432943 -1.1767614,0.649414 -2.0654294,0.649414 -0.305992,0 -0.618492,-0.02604 -0.9375,-0.07813 -0.315757,-0.05208 -0.642905,-0.130208 -0.981446,-0.234375 l 0,-0.991211 c 0.292968,0.159506 0.595702,0.278321 0.908203,0.356446 0.312499,0.07813 0.642902,0.117188 0.991211,0.117187 0.563148,1e-6 1.009111,-0.148111 1.337891,-0.444336 0.3287718,-0.296222 0.4931596,-0.69824 0.4931641,-1.206055 -4.5e-6,-0.507809 -0.1643923,-0.909827 -0.4931641,-1.206054 -0.32878,-0.29622 -0.774743,-0.444332 -1.337891,-0.444336 -0.263674,4e-6 -0.527345,0.0293 -0.791015,0.08789 -0.260418,0.0586 -0.527345,0.149744 -0.800781,0.273438 l 0,-3.662109 m 9.0673824,0.859375 -2.4902344,3.891601 2.4902344,0 0,-3.891601 m -0.2587891,-0.859375 1.2402344,0 0,4.750976 1.0400391,0 0,0.820313 -1.0400391,0 0,1.71875 -0.9814453,0 0,-1.71875 -3.2910156,0 0,-0.952149 3.0322265,-4.61914"
       style="font-style:normal;font-variant:normal;font-weight:normal;font-stretch:normal;font-size:10px;line-height:125%;font-family:Arial;text-align:start;writing-mode:lr-tb;text-anchor:start"
       transform="matrix(0,-1.4795801,1.4795801,0,149.17965,622.01727)"
       inkscape:connector-curvature="0"
       sodipodi:nodetypes="ccccccscccsccccsscccccccccccccccccccccc" />
    <path
       id="flowRoot2420"
       d="m -13.186523,52.177452 3.8720699,0 0,0.830078 -2.9687499,0 0,1.787109 c 0.143227,-0.04882 0.286456,-0.08463 0.429687,-0.107422 0.143227,-0.02604 0.286456,-0.03906 0.429688,-0.03906 0.813798,4e-6 1.4583289,0.222986 1.9335936,0.668945 0.4752552,0.445967 0.7128852,1.049808 0.7128906,1.811523 -5.4e-6,0.784507 -0.2441458,1.394858 -0.7324218,1.831055 -0.4882855,0.432943 -1.1767614,0.649414 -2.0654294,0.649414 -0.305992,0 -0.618492,-0.02604 -0.9375,-0.07813 -0.315757,-0.05208 -0.642905,-0.130208 -0.981446,-0.234375 l 0,-0.991211 c 0.292968,0.159506 0.595702,0.278321 0.908203,0.356446 0.312499,0.07813 0.642902,0.117188 0.991211,0.117187 0.563148,1e-6 1.009111,-0.148111 1.337891,-0.444336 0.3287718,-0.296222 0.4931596,-0.69824 0.4931641,-1.206055 -4.5e-6,-0.507809 -0.1643923,-0.909827 -0.4931641,-1.206054 -0.32878,-0.29622 -0.774743,-0.444332 -1.337891,-0.444336 -0.263674,4e-6 -0.527345,0.0293 -0.791015,0.08789 -0.260418,0.0586 -0.527345,0.149744 -0.800781,0.273438 l 0,-3.662109 m 6.3671871,0 3.8720703,0 0,0.830078 -2.96875,0 0,1.787109 c 0.143227,-0.04882 0.286456,-0.08463 0.4296875,-0.107422 0.1432266,-0.02604 0.2864556,-0.03906 0.4296875,-0.03906 0.8137984,4e-6 1.458329,0.222986 1.9335937,0.668945 0.4752552,0.445967 0.7128852,1.049808 0.7128907,1.811523 -5.5e-6,0.784507 -0.2441459,1.394858 -0.7324219,1.831055 -0.4882855,0.432943 -1.1767614,0.649414 -2.0654297,0.649414 -0.305992,0 -0.6184917,-0.02604 -0.9375,-0.07813 -0.3157567,-0.05208 -0.6429048,-0.130208 -0.9814453,-0.234375 l 0,-0.991211 c 0.2929677,0.159506 0.5957017,0.278321 0.9082031,0.356446 0.312498,0.07813 0.6429013,0.117188 0.9912109,0.117187 0.5631478,1e-6 1.0091109,-0.148111 1.3378907,-0.444336 0.3287717,-0.296222 0.4931595,-0.69824 0.493164,-1.206055 -4.5e-6,-0.507809 -0.1643923,-0.909827 -0.493164,-1.206054 -0.3287798,-0.29622 -0.7747429,-0.444332 -1.3378907,-0.444336 -0.2636742,4e-6 -0.5273459,0.0293 -0.7910156,0.08789 -0.2604183,0.0586 -0.5273451,0.149744 -0.8007812,0.273438 l 0,-3.662109"
       style="font-style:normal;font-variant:normal;font-weight:normal;font-stretch:normal;font-size:10px;line-height:125%;font-family:Arial;text-align:start;writing-mode:lr-tb;text-anchor:start"
       transform="matrix(0,-1.4795801,1.4795801,0,166.96569,622.01727)"
       inkscape:connector-curvature="0"
       sodipodi:nodetypes="ccccccscccsccccssccccccccccccscccsccccsscccccc" />
    <path
       id="flowRoot2428"
       d="m -13.186523,52.177452 3.8720699,0 0,0.830078 -2.9687499,0 0,1.787109 c 0.143227,-0.04882 0.286456,-0.08463 0.429687,-0.107422 0.143227,-0.02604 0.286456,-0.03906 0.429688,-0.03906 0.813798,4e-6 1.4583289,0.222986 1.9335936,0.668945 0.4752552,0.445967 0.7128852,1.049808 0.7128906,1.811523 -5.4e-6,0.784507 -0.2441458,1.394858 -0.7324218,1.831055 -0.4882855,0.432943 -1.1767614,0.649414 -2.0654294,0.649414 -0.305992,0 -0.618492,-0.02604 -0.9375,-0.07813 -0.315757,-0.05208 -0.642905,-0.130208 -0.981446,-0.234375 l 0,-0.991211 c 0.292968,0.159506 0.595702,0.278321 0.908203,0.356446 0.312499,0.07813 0.642902,0.117188 0.991211,0.117187 0.563148,1e-6 1.009111,-0.148111 1.337891,-0.444336 0.3287718,-0.296222 0.4931596,-0.69824 0.4931641,-1.206055 -4.5e-6,-0.507809 -0.1643923,-0.909827 -0.4931641,-1.206054 -0.32878,-0.29622 -0.774743,-0.444332 -1.337891,-0.444336 -0.263674,4e-6 -0.527345,0.0293 -0.791015,0.08789 -0.260418,0.0586 -0.527345,0.149744 -0.800781,0.273438 l 0,-3.662109 m 8.5888668,3.251953 c -0.4427112,4e-6 -0.7942734,0.151371 -1.0546876,0.454101 -0.2571634,0.302738 -0.385744,0.717777 -0.3857421,1.245117 -1.9e-6,0.524091 0.1285787,0.939129 0.3857421,1.245118 0.2604142,0.302735 0.6119764,0.454102 1.0546876,0.454101 0.4427045,1e-6 0.7926391,-0.151366 1.0498046,-0.454101 0.2604121,-0.305989 0.3906203,-0.721027 0.390625,-1.245118 -4.7e-6,-0.52734 -0.1302129,-0.942379 -0.390625,-1.245117 -0.2571655,-0.30273 -0.6071001,-0.454097 -1.0498046,-0.454101 m 1.9580078,-3.090821 0,0.898438 c -0.2474009,-0.117181 -0.4980517,-0.206699 -0.7519532,-0.268555 -0.2506553,-0.06184 -0.4996784,-0.09277 -0.7470703,-0.09277 -0.6510448,6e-6 -1.1490911,0.219733 -1.4941406,0.659179 -0.3417988,0.439459 -0.5371111,1.103521 -0.5859375,1.992188 0.1920554,-0.283199 0.4329406,-0.49967 0.7226562,-0.649414 0.2897109,-0.15299 0.608721,-0.229488 0.9570313,-0.229492 0.7324178,4e-6 1.3102167,0.222986 1.7333984,0.668945 0.4264268,0.442712 0.6396427,1.046553 0.6396485,1.811523 -5.8e-6,0.7487 -0.2213597,1.349285 -0.6640625,1.801758 -0.442713,0.452474 -1.0319051,0.678711 -1.7675781,0.678711 -0.8431015,0 -1.4876321,-0.322265 -1.9335938,-0.966797 -0.4459645,-0.647785 -0.668946,-1.585284 -0.6689453,-2.8125 -7e-7,-1.152339 0.2734365,-2.070306 0.8203125,-2.753906 0.5468729,-0.686842 1.2809217,-1.030266 2.2021484,-1.030273 0.2473919,7e-6 0.4964151,0.02442 0.7470703,0.07324 0.2539016,0.04883 0.5175732,0.122077 0.7910157,0.219726"
       style="font-style:normal;font-variant:normal;font-weight:normal;font-stretch:normal;font-size:10px;line-height:125%;font-family:Arial;text-align:start;writing-mode:lr-tb;text-anchor:start"
       transform="matrix(0,-1.4795801,1.4795801,0,184.70586,622.01727)"
       inkscape:connector-curvature="0"
       sodipodi:nodetypes="ccccccscccsccccssccccccccscscccccccsccccccsscscccc" />
    <path
       id="flowRoot2436"
       d="m -13.186523,52.177452 3.8720699,0 0,0.830078 -2.9687499,0 0,1.787109 c 0.143227,-0.04882 0.286456,-0.08463 0.429687,-0.107422 0.143227,-0.02604 0.286456,-0.03906 0.429688,-0.03906 0.813798,4e-6 1.4583289,0.222986 1.9335936,0.668945 0.4752552,0.445967 0.7128852,1.049808 0.7128906,1.811523 -5.4e-6,0.784507 -0.2441458,1.394858 -0.7324218,1.831055 -0.4882855,0.432943 -1.1767614,0.649414 -2.0654294,0.649414 -0.305992,0 -0.618492,-0.02604 -0.9375,-0.07813 -0.315757,-0.05208 -0.642905,-0.130208 -0.981446,-0.234375 l 0,-0.991211 c 0.292968,0.159506 0.595702,0.278321 0.908203,0.356446 0.312499,0.07813 0.642902,0.117188 0.991211,0.117187 0.563148,1e-6 1.009111,-0.148111 1.337891,-0.444336 0.3287718,-0.296222 0.4931596,-0.69824 0.4931641,-1.206055 -4.5e-6,-0.507809 -0.1643923,-0.909827 -0.4931641,-1.206054 -0.32878,-0.29622 -0.774743,-0.444332 -1.337891,-0.444336 -0.263674,4e-6 -0.527345,0.0293 -0.791015,0.08789 -0.260418,0.0586 -0.527345,0.149744 -0.800781,0.273438 l 0,-3.662109 m 6.108398,0 4.6875,0 0,0.419921 -2.6464844,6.870118 -1.0302734,0 2.4902344,-6.459961 -3.5009766,0 0,-0.830078"
       style="font-style:normal;font-variant:normal;font-weight:normal;font-stretch:normal;font-size:10px;line-height:125%;font-family:Arial;text-align:start;writing-mode:lr-tb;text-anchor:start"
       transform="matrix(0,-1.4795801,1.4795801,0,202.47414,622.01727)"
       inkscape:connector-curvature="0"
       sodipodi:nodetypes="ccccccscccsccccsscccccccccccccc" />
    <path
       id="flowRoot2444"
       d="m -13.186523,52.177452 3.8720699,0 0,0.830078 -2.9687499,0 0,1.787109 c 0.143227,-0.04882 0.286456,-0.08463 0.429687,-0.107422 0.143227,-0.02604 0.286456,-0.03906 0.429688,-0.03906 0.813798,4e-6 1.4583289,0.222986 1.9335936,0.668945 0.4752552,0.445967 0.7128852,1.049808 0.7128906,1.811523 -5.4e-6,0.784507 -0.2441458,1.394858 -0.7324218,1.831055 -0.4882855,0.432943 -1.1767614,0.649414 -2.0654294,0.649414 -0.305992,0 -0.618492,-0.02604 -0.9375,-0.07813 -0.315757,-0.05208 -0.642905,-0.130208 -0.981446,-0.234375 l 0,-0.991211 c 0.292968,0.159506 0.595702,0.278321 0.908203,0.356446 0.312499,0.07813 0.642902,0.117188 0.991211,0.117187 0.563148,1e-6 1.009111,-0.148111 1.337891,-0.444336 0.3287718,-0.296222 0.4931596,-0.69824 0.4931641,-1.206055 -4.5e-6,-0.507809 -0.1643923,-0.909827 -0.4931641,-1.206054 -0.32878,-0.29622 -0.774743,-0.444332 -1.337891,-0.444336 -0.263674,4e-6 -0.527345,0.0293 -0.791015,0.08789 -0.260418,0.0586 -0.527345,0.149744 -0.800781,0.273438 l 0,-3.662109 m 8.4667964,3.828125 c -0.4687527,3e-6 -0.8382184,0.125328 -1.1083984,0.375976 -0.2669289,0.250654 -0.4003923,0.595706 -0.4003906,1.035156 -1.7e-6,0.439455 0.1334617,0.784507 0.4003906,1.035157 0.27018,0.250651 0.6396457,0.375977 1.1083984,0.375976 0.4687464,1e-6 0.8382122,-0.125325 1.1083985,-0.375976 0.2701777,-0.253905 0.4052687,-0.598957 0.4052734,-1.035157 -4.7e-6,-0.43945 -0.1350957,-0.784502 -0.4052734,-1.035156 -0.2669311,-0.250648 -0.6363969,-0.375973 -1.1083985,-0.375976 m -0.9863281,-0.419922 c -0.4231788,-0.104163 -0.7535822,-0.301103 -0.9912109,-0.590821 -0.234376,-0.289708 -0.3515634,-0.642898 -0.3515625,-1.05957 -9e-7,-0.582676 0.2067046,-1.043288 0.6201172,-1.381836 0.4166647,-0.338534 0.9863256,-0.507805 1.7089843,-0.507812 0.7259076,7e-6 1.2955685,0.169278 1.7089844,0.507812 0.4134062,0.338548 0.6201117,0.79916 0.6201172,1.381836 -5.5e-6,0.416672 -0.1188205,0.769862 -0.3564453,1.05957 -0.2343799,0.289718 -0.561528,0.486658 -0.9814453,0.590821 0.4752557,0.110681 0.8447215,0.327152 1.1083984,0.649414 0.2669216,0.322268 0.400385,0.716148 0.4003906,1.18164 -5.6e-6,0.706382 -0.2164768,1.248374 -0.649414,1.625977 -0.4296921,0.377604 -1.0465535,0.566406 -1.850586,0.566406 -0.8040388,0 -1.4225278,-0.188802 -1.8554687,-0.566406 -0.4296884,-0.377603 -0.6445319,-0.919595 -0.6445313,-1.625977 -6e-7,-0.465492 0.1334628,-0.859372 0.4003907,-1.18164 0.2669257,-0.322262 0.6380191,-0.538733 1.1132812,-0.649414 m -0.3613281,-1.557618 c -1.8e-6,0.37761 0.1171855,0.672206 0.3515625,0.88379 0.2376278,0.211592 0.5696587,0.317387 0.9960937,0.317382 0.4231735,5e-6 0.7535768,-0.10579 0.991211,-0.317382 0.240881,-0.211584 0.3613236,-0.50618 0.3613281,-0.88379 -4.5e-6,-0.377598 -0.1204471,-0.672194 -0.3613281,-0.883789 -0.2376342,-0.211582 -0.5680375,-0.317376 -0.991211,-0.317382 -0.426435,6e-6 -0.7584659,0.1058 -0.9960937,0.317382 -0.234377,0.211595 -0.3515643,0.506191 -0.3515625,0.883789"
       style="font-style:normal;font-variant:normal;font-weight:normal;font-stretch:normal;font-size:10px;line-height:125%;font-family:Arial;text-align:start;writing-mode:lr-tb;text-anchor:start"
       transform="matrix(0,-1.4795801,1.4795801,0,218.75248,622.01727)"
       inkscape:connector-curvature="0"
       sodipodi:nodetypes="ccccccscccsccccssccccccccscsccccccscccccccccscsscccccccccc" />
    <path
       inkscape:connector-curvature="0"
       style="font-style:normal;font-variant:normal;font-weight:normal;font-stretch:normal;font-size:10px;line-height:125%;font-family:Arial;text-align:start;writing-mode:lr-tb;text-anchor:start"
       d="m 70.315713,629.00048 c 8e-6,0.75136 0.370867,1.31728 1.112574,1.69776 0.736908,0.37568 1.847074,0.56352 3.3305,0.56352 1.478621,0 2.588787,-0.18784 3.3305,-0.56352 0.736902,-0.38048 1.105352,-0.9464 1.10535,-1.69776 2e-6,-0.75616 -0.368448,-1.32208 -1.10535,-1.69776 -0.741713,-0.38048 -1.851879,-0.57073 -3.3305,-0.57073 -1.483426,0 -2.593592,0.19025 -3.3305,0.57073 -0.741707,0.37568 -1.112566,0.9416 -1.112574,1.69776 m -1.155922,0 c 1e-5,-1.20889 0.479236,-2.13122 1.437677,-2.76698 0.953644,-0.64057 2.340749,-0.96086 4.161319,-0.96086 1.815764,0 3.202869,0.32029 4.161319,0.96086 0.953636,0.63576 1.430453,1.55809 1.430453,2.76698 0,1.20891 -0.476817,2.13365 -1.430453,2.77422 -0.95845,0.63575 -2.345555,0.95363 -4.161319,0.95363 -1.82057,0 -3.207675,-0.31788 -4.161319,-0.95363 -0.958441,-0.64057 -1.437667,-1.56531 -1.437677,-2.77422"
       id="path3698"
       sodipodi:nodetypes="ccscscsccccscscscc" />
  </g>
  <rect
     y="432.91678"
     x="224.40681"
     height="62.542744"
     width="27.546879"
     id="rect3700"
     style="fill:#63aafe;fill-opacity:1;stroke:none" />
  <rect
     y="353.48495"
     x="326.10828"
     height="141.97595"
     width="27.546879"
     id="rect3702"
     style="fill:#63aafe;fill-opacity:1;stroke:none" />
  <rect
     style="fill:#63aafe;fill-opacity:1;stroke:none"
     id="rect3704"
     width="27.546879"
     height="184.45859"
     x="383.19263"
     y="311.00238" />
</svg>
